<?xml version="1.0" standalone="no"?>
<!DOCTYPE svg PUBLIC "-//W3C//DTD SVG 20010904//EN"
 "http://www.w3.org/TR/2001/REC-SVG-20010904/DTD/svg10.dtd">
<svg version="1.0" xmlns="http://www.w3.org/2000/svg"
 width="499.000000pt" height="499.000000pt" viewBox="0 0 499.000000 499.000000"
 preserveAspectRatio="xMidYMid meet">
<metadata>
Created by potrace 1.16, written by Peter Selinger 2001-2019
</metadata>
<g transform="translate(0.000000,499.000000) scale(0.100000,-0.100000)"
fill="#000000" stroke="none">
<path d="M2676 3995 c-4 -16 -16 -27 -33 -31 -22 -6 -31 -2 -50 22 l-23 29 0
-37 c0 -53 -26 -68 -120 -68 -83 0 -157 -18 -234 -57 l-49 -25 -93 31 c-51 17
-97 31 -102 31 -5 0 -7 -12 -4 -26 3 -15 -1 -29 -8 -34 -8 -5 7 -14 41 -25
104 -34 269 -126 331 -184 58 -55 59 -57 53 -97 -12 -72 -11 -72 -153 5 -109
59 -245 121 -268 121 -3 0 -2 -5 2 -11 3 -6 1 -15 -5 -19 -7 -4 7 -14 36 -24
26 -10 100 -46 163 -81 63 -35 130 -70 148 -79 17 -9 32 -20 32 -24 0 -4 -19
-26 -41 -50 l-41 -42 -32 19 c-49 30 -248 131 -258 131 -5 0 -6 -4 -3 -10 3
-5 1 -10 -6 -10 -11 0 83 -52 219 -122 23 -12 42 -27 42 -32 0 -6 -16 -21 -35
-33 l-34 -23 -97 35 c-54 19 -99 34 -101 31 -2 -2 32 -18 77 -36 44 -18 82
-36 85 -40 9 -14 -77 -44 -128 -44 -29 0 -44 -2 -34 -4 15 -3 17 -16 17 -88
l0 -85 35 -20 c19 -11 37 -20 41 -20 4 0 19 29 34 65 40 94 90 157 178 223 42
32 115 97 161 145 180 189 348 258 474 194 26 -13 47 -19 47 -15 0 5 -11 32
-25 61 -13 29 -27 70 -30 91 -4 26 -21 54 -54 91 -27 30 -56 75 -66 104 -15
41 -21 49 -32 40 -11 -9 -16 -4 -26 21 -14 37 -23 39 -31 6z"/>
<path d="M3110 3940 c-78 -10 -212 -38 -219 -46 -9 -8 81 -84 99 -84 8 0 53 7
100 16 166 29 406 15 554 -33 180 -58 372 -187 481 -323 38 -47 57 -61 112
-83 37 -15 68 -26 69 -24 9 9 -148 200 -236 287 -150 149 -279 221 -490 272
-96 23 -358 33 -470 18z"/>
<path d="M3150 3714 c-14 -3 -59 -12 -100 -20 l-74 -16 28 -25 c19 -16 36 -23
50 -19 12 3 65 11 120 18 253 29 539 -54 737 -215 51 -42 109 -77 126 -77 14
0 -81 91 -152 145 -181 138 -361 203 -580 210 -71 2 -141 2 -155 -1z"/>
<path d="M3100 3558 c-56 -12 -57 -14 -36 -37 14 -16 23 -17 69 -9 28 6 111 8
182 5 152 -6 236 -27 370 -91 50 -24 104 -47 120 -50 l30 -7 -25 21 c-14 11
-63 40 -110 64 -170 89 -275 116 -440 115 -63 -1 -135 -6 -160 -11z"/>
<path d="M2654 3476 c-58 -18 -128 -69 -169 -123 -19 -25 -35 -49 -35 -53 0
-4 30 -10 66 -13 134 -10 286 -119 354 -253 14 -27 26 -51 27 -53 2 -2 27 12
55 32 70 47 114 65 184 73 63 8 52 22 -19 23 -107 2 -13 112 123 143 47 10 51
13 30 19 -80 22 -191 -5 -312 -76 -42 -25 -82 -45 -88 -45 -13 0 -13 45 0 70
14 25 89 68 172 96 133 45 308 53 482 23 32 -6 60 -8 63 -6 2 3 -24 14 -59 26
-97 33 -243 46 -378 33 -104 -10 -122 -15 -196 -52 -46 -23 -101 -58 -123 -77
-59 -50 -91 -31 -57 35 29 54 95 101 166 118 l35 8 -40 12 c-55 16 -77 10
-168 -49 -75 -48 -78 -49 -97 -32 -23 20 -26 57 -7 73 6 6 35 22 62 36 l50 25
-40 0 c-22 0 -58 -6 -81 -13z"/>
<path d="M2337 3182 c-82 -47 -95 -58 -80 -66 10 -5 57 -33 104 -62 l86 -52
104 60 c57 33 105 61 107 63 5 4 -200 115 -212 114 -6 0 -55 -26 -109 -57z"/>
<path d="M2220 2983 l0 -118 99 -57 c55 -32 102 -58 105 -58 3 0 6 53 6 118
l0 117 -97 55 c-53 30 -101 57 -105 58 -4 2 -8 -50 -8 -115z"/>
<path d="M2563 3039 l-103 -61 0 -115 c0 -88 3 -114 13 -111 7 2 56 28 110 58
l97 55 0 118 c0 64 -3 117 -7 117 -5 -1 -54 -28 -110 -61z"/>
<path d="M3200 2726 c-30 -6 -77 -22 -105 -36 -74 -35 -169 -135 -208 -217
-30 -64 -32 -74 -32 -183 0 -105 3 -123 33 -210 19 -52 67 -165 108 -250 73
-151 283 -530 294 -530 14 2 206 315 274 450 150 295 193 473 151 635 -46 176
-187 313 -355 345 -65 12 -89 12 -160 -4z m188 -295 c46 -24 99 -81 120 -130
8 -20 15 -63 15 -96 -1 -105 -52 -191 -137 -231 -160 -75 -330 41 -329 225 1
75 19 124 64 176 72 82 175 103 267 56z"/>
<path d="M2265 2416 c14 -31 25 -59 25 -61 0 -3 -208 -5 -462 -6 -255 -1 -490
-5 -523 -9 -33 -4 -52 -8 -42 -9 15 -1 17 -15 17 -136 0 -74 -3 -135 -7 -135
-5 0 -19 -10 -33 -21 l-25 -21 26 15 c75 45 110 47 601 45 l466 -3 -32 -67
-32 -67 96 52 c275 149 370 203 370 208 0 4 -96 59 -212 124 -117 65 -223 125
-235 133 l-23 14 25 -56z"/>
<path d="M1400 1900 c-85 -3 -147 -7 -137 -8 11 -1 17 -11 17 -27 0 -32 -4
-32 -30 8 -12 17 -20 27 -18 20 2 -6 39 -61 83 -122 l80 -110 198 0 197 -1 0
-55 0 -55 -222 0 c-213 0 -226 2 -283 25 -33 13 -51 18 -41 10 11 -8 23 -15
28 -15 4 0 8 -54 8 -120 l0 -120 -32 -1 c-26 -1 -22 -3 17 -9 28 -5 227 -9
443 -9 l392 -1 0 300 0 300 -272 -2 c-150 -1 -343 -5 -428 -8z"/>
<path d="M2130 1575 l0 -247 143 4 c154 5 198 16 250 66 52 49 72 99 72 183
-1 67 -4 82 -31 125 -18 30 -48 60 -78 79 -48 29 -52 30 -203 33 l-153 4 0
-247z m271 132 c65 -43 88 -135 51 -206 -25 -51 -60 -72 -130 -78 l-62 -6 0
157 0 156 54 0 c39 0 62 -6 87 -23z"/>
<path d="M3217 1200 c-31 -25 -51 -80 -42 -119 3 -15 20 -41 36 -57 25 -24 39
-29 79 -29 40 0 54 5 79 29 54 51 50 131 -7 176 -34 27 -110 27 -145 0z"/>
</g>
</svg>
