<?xml version="1.0" standalone="no"?>
<!DOCTYPE svg PUBLIC "-//W3C//DTD SVG 20010904//EN"
 "http://www.w3.org/TR/2001/REC-SVG-20010904/DTD/svg10.dtd">
<svg version="1.0" xmlns="http://www.w3.org/2000/svg"
 width="250" height="150" viewBox="0 0 696.000000 696.000000"
 preserveAspectRatio="xMidYMid meet">

<g transform="translate(0.000000,696.000000) scale(0.100000,-0.100000)"
fill="#F53838" stroke="none">
<path d="M3741 5597 c-6 -16 -11 -32 -11 -37 0 -15 -39 -31 -68 -28 -17 2 -35
15 -49 37 l-23 34 0 -37 c0 -45 -23 -92 -48 -100 -11 -4 -81 -10 -158 -15
-147 -10 -205 -25 -310 -82 l-52 -29 -108 39 c-60 21 -122 41 -139 44 l-30 6
1 -56 2 -56 66 -23 c93 -32 266 -116 344 -167 74 -48 157 -126 167 -157 8 -24
-12 -127 -26 -136 -5 -3 -37 10 -72 29 -155 86 -187 103 -269 144 -71 36 -188
83 -205 83 -1 0 -3 -11 -3 -24 0 -13 -5 -26 -12 -28 -6 -2 11 -12 38 -22 27
-10 101 -46 164 -79 63 -33 158 -83 210 -110 112 -59 115 -61 104 -80 -17 -28
-92 -107 -103 -107 -6 0 -76 36 -156 80 -126 70 -226 120 -241 120 -2 0 -4 -9
-4 -20 0 -11 -4 -20 -10 -20 -5 0 50 -31 123 -69 202 -106 237 -125 237 -133
0 -12 -88 -68 -107 -68 -10 0 -67 18 -127 40 -60 22 -113 37 -117 34 -5 -3 -9
0 -9 5 0 6 -4 11 -10 11 -39 0 57 -49 193 -99 15 -6 27 -14 27 -18 0 -18 -126
-58 -180 -58 -30 1 -47 -1 -37 -3 16 -3 18 -15 16 -124 l-1 -120 58 -39 59
-39 8 28 c51 172 145 300 302 412 33 24 116 100 185 171 180 184 301 269 437
304 110 29 223 11 283 -45 28 -26 30 -27 25 -7 -3 12 -22 54 -41 92 -19 39
-34 84 -34 100 -1 46 -36 114 -89 170 -46 48 -92 131 -107 190 -6 24 -7 24
-20 8 -12 -17 -13 -17 -28 2 -8 11 -16 27 -16 35 0 8 -4 22 -10 30 -7 11 -11
9 -19 -13z m269 -418 c0 -10 -4 -19 -9 -19 -12 0 -23 29 -15 41 8 14 24 0 24
-22z"/>
<path d="M4410 5503 c-159 -18 -380 -60 -380 -73 0 -3 27 -32 60 -65 l59 -58
123 24 c106 21 152 24 328 24 132 0 230 -5 275 -14 392 -76 692 -258 927 -563
11 -13 208 -102 214 -95 1 1 -44 63 -99 137 -121 161 -331 376 -434 443 -261
170 -550 249 -897 245 -78 0 -157 -3 -176 -5z"/>
<path d="M4395 5180 c-60 -8 -245 -49 -245 -54 0 -1 19 -16 43 -33 l42 -31 70
16 c112 25 432 22 555 -5 241 -54 450 -155 624 -302 32 -27 80 -58 107 -69
l49 -21 -16 25 c-9 13 -53 56 -98 95 -220 192 -446 309 -706 365 -87 18 -337
27 -425 14z"/>
<path d="M4460 4984 c-63 -7 -200 -36 -205 -44 -2 -4 7 -17 20 -30 23 -22 27
-23 94 -12 99 17 312 15 417 -3 118 -21 278 -75 384 -131 68 -35 190 -80 190
-69 0 1 -35 25 -77 53 -157 102 -335 178 -498 212 -90 19 -259 31 -325 24z"/>
<path d="M3720 4854 c-30 -8 -79 -29 -109 -47 -57 -34 -161 -139 -185 -186
l-15 -28 77 -5 c213 -14 408 -151 519 -363 20 -38 37 -72 39 -73 1 -2 33 19
69 47 76 57 148 87 253 106 40 7 76 15 78 18 3 3 -28 8 -69 12 -97 9 -103 13
-87 59 20 61 97 107 240 144 l75 20 -58 7 c-145 18 -276 -18 -447 -124 -64
-40 -88 -50 -100 -43 -20 13 -15 67 10 102 42 59 252 144 422 171 111 17 398
6 513 -19 50 -11 91 -19 93 -17 7 7 -149 64 -217 79 -170 38 -484 30 -617 -16
-88 -31 -206 -99 -265 -155 -49 -46 -75 -49 -85 -9 -8 32 10 70 57 121 54 59
97 84 176 105 l64 16 -43 15 c-84 28 -116 19 -238 -61 -98 -65 -113 -72 -134
-62 -14 6 -29 26 -36 47 -10 32 -10 39 7 57 19 21 71 51 138 80 l40 17 -55 0
c-30 0 -80 -7 -110 -15z"/>
<path d="M3268 4443 c-76 -43 -138 -80 -138 -83 0 -8 272 -165 286 -165 14 0
293 157 293 165 0 7 -269 155 -288 158 -9 1 -78 -33 -153 -75z"/>
<path d="M3092 4165 l3 -167 144 -84 c79 -46 145 -84 147 -84 2 0 4 75 4 168
l0 167 -143 80 c-78 44 -145 82 -150 83 -4 2 -6 -71 -5 -163z m163 4 c47 -26
55 -35 55 -60 0 -36 -7 -36 -75 2 -47 26 -55 35 -55 60 0 36 7 36 75 -2z"/>
<path d="M3585 4245 l-140 -82 -3 -167 c-1 -91 -1 -166 1 -166 2 0 68 37 148
83 l144 82 3 168 c1 92 -1 167 -5 166 -5 0 -71 -38 -148 -84z"/>
<path d="M4490 3810 c-120 -22 -226 -76 -314 -159 -181 -172 -244 -390 -182
-632 26 -102 91 -273 160 -420 75 -162 316 -603 407 -747 l28 -44 89 134 c261
390 428 731 503 1022 25 98 27 255 3 353 -39 163 -159 334 -287 411 -117 71
-287 105 -407 82z m165 -394 c140 -37 231 -138 257 -286 26 -149 -63 -322
-196 -382 -72 -32 -190 -32 -263 1 -101 45 -181 165 -191 286 -14 181 90 336
257 381 60 16 76 16 136 0z"/>
<path d="M3137 3412 c8 -20 26 -58 39 -84 l24 -48 -423 0 c-233 0 -553 -3
-710 -7 l-287 -6 0 -204 c0 -148 -3 -203 -12 -203 -6 0 -9 -2 -7 -4 2 -3 31 5
64 17 59 22 71 22 728 25 367 1 667 0 667 -2 0 -3 -22 -48 -48 -101 l-49 -95
87 48 c47 26 197 108 333 182 136 74 247 137 247 140 0 3 -125 75 -277 160
-153 85 -303 169 -334 187 l-58 32 16 -37z"/>
<path d="M1708 3253 c6 -2 18 -2 25 0 6 3 1 5 -13 5 -14 0 -19 -2 -12 -5z"/>
<path d="M1724 2834 c-18 -14 -18 -15 4 -4 12 6 22 13 22 15 0 8 -5 6 -26 -11z"/>
<path d="M1733 2653 l47 -4 0 -46 0 -46 -31 39 c-17 22 -33 41 -36 44 -11 9
10 -25 38 -60 14 -19 65 -88 113 -152 l86 -118 270 0 270 0 0 -76 0 -76 -302
4 c-279 3 -308 5 -363 25 -33 12 -62 20 -64 17 -2 -2 1 -4 7 -4 9 0 12 -49 12
-179 0 -163 -2 -180 -17 -184 -10 -3 133 -5 318 -6 185 0 451 -4 592 -8 l257
-6 0 421 0 422 -622 -2 c-343 -1 -602 -3 -575 -5z"/>
<path d="M2970 2202 c0 -186 2 -341 4 -343 2 -2 94 -2 203 1 187 5 201 7 254
32 69 32 127 88 160 154 32 65 39 199 14 273 -22 66 -75 134 -130 167 -76 44
-134 54 -327 54 l-178 0 0 -338z m371 188 c74 -38 103 -102 97 -215 -3 -64 -7
-78 -34 -112 -46 -57 -81 -73 -173 -80 l-81 -6 0 223 0 223 76 -7 c43 -4 94
-16 115 -26z"/>
<path d="M1710 2236 c0 -3 9 -10 20 -16 11 -6 20 -8 20 -6 0 3 -9 10 -20 16
-11 6 -20 8 -20 6z"/>
<path d="M4535 1700 c-17 -5 -45 -24 -62 -42 -108 -113 -15 -296 140 -275 106
14 171 141 122 237 -34 66 -126 103 -200 80z"/>
</g>
</svg>
