<?xml version="1.0" encoding="iso-8859-1"?>
<!-- Generator: Adobe Illustrator 19.0.0, SVG Export Plug-In . SVG Version: 6.00 Build 0)  -->
<svg version="1.1" id="Layer_1" xmlns="http://www.w3.org/2000/svg" xmlns:xlink="http://www.w3.org/1999/xlink" x="0px" y="0px"
	 viewBox="0 0 512 512" style="enable-background:new 0 0 512 512;" xml:space="preserve">
<path style="fill:#FF7452;" d="M417.016,476.033c33.049-33.049,33.049-86.633,0-119.682s-86.633-33.049-119.682,0
	c-8.514,8.514-14.815,18.394-18.943,28.93L124.785,231.675c10.536-4.128,20.417-10.429,28.93-18.943
	c33.049-33.049,33.049-86.633,0-119.682S67.083,60,34.033,93.05c-31.029,31.029-32.921,80.158-5.685,113.4l-0.298,0.298
	L301.823,480.52l0.185-0.185C335.255,508.989,385.478,507.571,417.016,476.033z"/>
<g>
	<path style="fill:#E24642;" d="M153.715,212.732c33.049-33.049,33.049-86.633,0-119.682S67.083,60,34.033,93.05
		c-2.267,2.267-4.358,4.64-6.314,7.087l118.914,118.913C149.08,217.096,151.449,214.998,153.715,212.732z"/>
	<path style="fill:#E24642;" d="M417.016,476.033c33.049-33.049,33.049-86.633,0-119.682s-86.633-33.049-119.682,0
		c-2.266,2.266-4.365,4.635-6.317,7.082L409.93,482.347C412.377,480.391,414.75,478.299,417.016,476.033z"/>
</g>
<path style="fill:#FFD652;" d="M437.462,478.027L292.347,332.913c-6.197-6.197-6.197-16.243,0-22.44l37.4-37.4
	c6.197-6.197,16.243-6.197,22.44,0l145.115,145.115c6.197,6.197,6.197,16.243,0,22.44l-37.4,37.4
	C453.705,484.224,443.659,484.224,437.462,478.027z"/>
<rect x="352.88" y="315.487" transform="matrix(0.7071 0.7071 -0.7071 0.7071 363.4434 -161.8279)" style="fill:#F7EDBC;" width="48.371" height="84.627"/>
<path style="fill:#FB9D46;" d="M497.303,418.187l-21.381-21.381l-59.842,59.842l21.381,21.381c6.197,6.197,16.243,6.197,22.44,0
	l37.4-37.4C503.499,434.43,503.499,424.383,497.303,418.187z"/>
<path style="fill:#FFD652;" d="M180.145,220.711L35.031,75.596c-6.197-6.197-6.197-16.243,0-22.44l37.4-37.401
	c6.197-6.197,16.243-6.197,22.44,0L239.986,160.87c6.197,6.197,6.197,16.243,0,22.44l-37.4,37.4
	C196.389,226.908,186.342,226.908,180.145,220.711z"/>
<path style="fill:#FB9D46;" d="M51.827,92.393l59.842-59.842L94.871,15.755c-6.197-6.197-16.243-6.197-22.44,0l-37.4,37.401
	c-6.197,6.197-6.197,16.243,0,22.44L51.827,92.393z"/>
<rect x="126.787" y="88.397" transform="matrix(-0.7071 -0.7071 0.7071 -0.7071 163.5979 329.1855)" style="fill:#F7EDBC;" width="46.377" height="84.627"/>
<path style="fill:#458FDE;" d="M184.595,324.231l-65.431,35.519c-10.238-5.119-21.781-8.015-34.007-8.015
	c-42.064,0-76.165,34.1-76.165,76.165c0,42.064,34.101,76.165,76.165,76.165c42.065,0,76.165-34.101,76.165-76.165
	c0-12.522-3.041-24.325-8.394-34.746L184.595,324.231z"/>
<path style="fill:#4F5AA8;" d="M103.14,486.083c-42.064,0-76.165-34.101-76.165-76.165c0-16.44,5.227-31.651,14.084-44.098
	c-19.4,13.805-32.068,36.457-32.068,62.081c0,42.064,34.101,76.165,76.165,76.165c25.624,0,48.276-12.668,62.081-32.068
	C134.791,480.856,119.581,486.083,103.14,486.083z"/>
<path d="M475.055,384.718c8.947-14.977,16.371-30.872,22.045-47.322c1.428-4.143-0.771-8.659-4.914-10.088
	c-4.144-1.43-8.659,0.771-10.088,4.914c-4.884,14.16-11.141,27.889-18.628,40.911L357.797,267.461c-9.279-9.279-24.38-9.279-33.66,0
	l-37.4,37.4c-9.281,9.279-9.281,24.38,0,33.66l8.712,8.712c-1.27,1.139-2.522,2.303-3.726,3.506
	c-6.265,6.264-11.525,13.275-15.719,20.934L138.391,234.06c7.659-4.193,14.67-9.454,20.935-15.719
	c1.204-1.204,2.367-2.457,3.505-3.726l11.705,11.705c4.64,4.64,10.735,6.961,16.83,6.961c6.095,0,12.19-2.32,16.83-6.961l37.4-37.4
	c9.281-9.279,9.281-24.38,0-33.66l-107.79-107.79c33.736-19.39,71.704-30.182,110.788-31.469v14.147
	c0,4.382,3.552,7.934,7.934,7.934c4.382,0,7.934-3.552,7.934-7.934V16.014c26.127,0.859,51.206,5.929,74.572,14.57l-8.205,19.809
	c-1.677,4.048,0.245,8.689,4.294,10.366c0.993,0.412,2.022,0.606,3.033,0.606c3.113,0,6.068-1.845,7.333-4.9l8.234-19.88
	c23.855,10.686,45.641,25.181,64.593,42.703L403.25,94.356c-3.098,3.098-3.098,8.122,0,11.22c1.549,1.549,3.58,2.324,5.61,2.324
	s4.061-0.774,5.61-2.324l15.143-15.143c17.763,18.74,32.516,40.356,43.497,64.062l-19.778,8.193
	c-4.048,1.677-5.971,6.319-4.294,10.366c1.266,3.056,4.22,4.9,7.333,4.9c1.012,0,2.041-0.195,3.033-0.606l19.889-8.239
	c9.283,24.159,14.742,50.195,15.635,77.37h-18.365c-4.382,0-7.934,3.552-7.934,7.934c0,4.382,3.552,7.934,7.934,7.934h18.365
	c-0.434,13.197-1.932,26.338-4.501,39.17c-0.86,4.297,1.925,8.477,6.221,9.338c0.526,0.106,1.049,0.155,1.566,0.155
	c3.704,0,7.016-2.607,7.771-6.378c3.29-16.425,4.958-33.321,4.958-50.219c0-52.905-16.559-105.014-47.414-147.991
	c-29.336-40.863-70.634-72.77-117.802-90.397C317.256,5.387,286.916,0,256.529,0c-46.085,0-91.008,12.392-130.317,35.876
	l-25.731-25.731c-9.281-9.281-24.381-9.279-33.661,0l-37.399,37.4c-9.281,9.281-9.281,24.38,0,33.661l2.719,2.719
	c-1.269,1.138-2.512,2.311-3.716,3.515c-16.342,16.34-25.933,38.044-27.008,61.11c-1.027,22.032,5.764,43.546,19.165,60.879
	c0.383,1.068,1.003,2.072,1.859,2.929l40.184,40.184c1.549,1.549,3.58,2.324,5.61,2.324c2.03,0,4.061-0.774,5.61-2.324
	c3.098-3.098,3.098-8.122,0-11.22l-38.376-38.376c-0.263-0.534-0.59-1.046-0.983-1.525C9.425,170.837,11.643,126.66,39.642,98.659
	c1.205-1.205,2.467-2.359,3.749-3.482l108.202,108.202c-1.12,1.278-2.284,2.538-3.488,3.743
	c-7.525,7.523-16.345,13.299-26.214,17.166c-2.492,0.976-4.324,3.144-4.872,5.764c-0.548,2.62,0.263,5.34,2.156,7.233
	l153.606,153.606c1.503,1.503,3.528,2.324,5.61,2.324c0.54,0,1.083-0.055,1.623-0.168c2.62-0.548,4.788-2.38,5.764-4.872
	c3.866-9.87,9.641-18.689,17.166-26.214c1.204-1.204,2.467-2.359,3.748-3.482L414.9,466.686c-1.124,1.283-2.29,2.534-3.494,3.737
	c-28.227,28.227-74.005,29.941-104.221,3.902c-0.374-0.324-0.772-0.605-1.186-0.847L181.812,349.291l9.991-21.747
	c1.426-3.105,0.706-6.772-1.789-9.106c-2.494-2.335-6.204-2.809-9.205-1.178l-20.119,10.922c-0.036-0.038-0.068-0.078-0.105-0.115
	L95,262.481c-3.098-3.098-8.122-3.098-11.22,0c-3.098,3.098-3.098,8.122,0,11.22l62.371,62.371l-27.25,14.793
	c-10.654-4.688-21.986-7.063-33.744-7.063c-46.372,0-84.099,37.727-84.099,84.099S38.785,512,85.157,512
	s84.099-37.727,84.099-84.099c0-12.171-2.54-23.869-7.556-34.837l13.048-28.397L296.211,486.13c0.663,0.663,1.414,1.185,2.217,1.565
	c16.575,13.648,37.249,21.047,58.75,21.047c1.08,0,2.165-0.019,3.249-0.056c23.484-0.814,45.574-10.417,62.198-27.042
	c1.204-1.204,2.372-2.449,3.511-3.72l5.715,5.715c4.64,4.64,10.735,6.961,16.83,6.961s12.191-2.32,16.83-6.961l37.4-37.4
	c9.281-9.281,9.281-24.38,0-33.661L475.055,384.718z M40.641,58.766l37.4-37.4c1.547-1.547,3.579-2.32,5.611-2.32
	c2.031,0,4.063,0.773,5.61,2.32L234.376,166.48c3.093,3.093,3.093,8.126,0,11.22l-37.4,37.4c-3.094,3.093-8.127,3.093-11.22,0
	L40.641,69.986C37.547,66.892,37.547,61.859,40.641,58.766z M145.871,396.78c4.988,9.709,7.517,20.18,7.517,31.121
	c0,37.622-30.609,68.231-68.231,68.231s-68.231-30.609-68.231-68.231s30.609-68.231,68.231-68.231
	c10.684,0,20.933,2.415,30.459,7.179c2.318,1.159,5.055,1.112,7.333-0.124l44.488-24.15l-21.718,47.268
	C144.701,392.056,144.757,394.613,145.871,396.78z M491.692,435.017l-37.4,37.4c-3.093,3.093-8.126,3.094-11.221,0L297.958,327.302
	c-3.093-3.093-3.093-8.126,0-11.22l37.4-37.4c1.547-1.547,3.579-2.32,5.61-2.32c2.031,0,4.063,0.773,5.61,2.32l145.115,145.114
	C494.787,426.889,494.787,431.924,491.692,435.017z"/>
<path d="M332.694,179.835c4.382,0,7.934-3.552,7.934-7.934v-50.777c0-4.382-3.552-7.934-7.934-7.934h-50.777
	c-4.382,0-7.934,3.552-7.934,7.934s3.552,7.934,7.934,7.934h42.843v34.909h-42.843c-4.382,0-7.934,3.552-7.934,7.934v50.777
	c0,4.382,3.552,7.934,7.934,7.934h50.777c4.382,0,7.934-3.552,7.934-7.934c0-4.382-3.552-7.934-7.934-7.934h-42.843v-34.909H332.694
	z"/>
<path d="M404.628,230.612c4.382,0,7.934-3.552,7.934-7.934V196.76h13.223c4.382,0,7.934-3.552,7.934-7.934
	c0-4.382-3.552-7.934-7.934-7.934h-13.223v-38.612c0-4.382-3.552-7.934-7.934-7.934s-7.934,3.552-7.934,7.934v38.612h-26.446
	v-59.769c0-4.382-3.552-7.934-7.934-7.934s-7.934,3.552-7.934,7.934v67.702c0,4.382,3.552,7.934,7.934,7.934h34.38v25.917
	C396.694,227.059,400.246,230.612,404.628,230.612z"/>
<path d="M85.157,375.537c-4.382,0-7.934,3.552-7.934,7.934v8.463c0,4.382,3.552,7.934,7.934,7.934s7.934-3.552,7.934-7.934v-8.463
	C93.091,379.089,89.539,375.537,85.157,375.537z"/>
<path d="M85.157,405.157c-4.382,0-7.934,3.552-7.934,7.934v63.471c0,4.382,3.552,7.934,7.934,7.934s7.934-3.552,7.934-7.934v-63.471
	C93.091,408.709,89.539,405.157,85.157,405.157z"/>
<g>
</g>
<g>
</g>
<g>
</g>
<g>
</g>
<g>
</g>
<g>
</g>
<g>
</g>
<g>
</g>
<g>
</g>
<g>
</g>
<g>
</g>
<g>
</g>
<g>
</g>
<g>
</g>
<g>
</g>
</svg>
