<?xml version="1.0" standalone="no"?>
<!DOCTYPE svg PUBLIC "-//W3C//DTD SVG 20010904//EN"
 "http://www.w3.org/TR/2001/REC-SVG-20010904/DTD/svg10.dtd">
<svg version="1.0" xmlns="http://www.w3.org/2000/svg"
 width="1080.000000pt" height="1080.000000pt" viewBox="0 0 1080.000000 1080.000000"
 preserveAspectRatio="xMidYMid meet">

<g transform="translate(0.000000,1080.000000) scale(0.100000,-0.100000)"
fill="#000000" stroke="none">
<path d="M5810 8724 c0 -11 -7 -42 -16 -67 -18 -52 -52 -78 -107 -79 -33 -1
-61 25 -100 97 l-22 40 -5 -86 c-5 -84 -13 -106 -50 -136 -20 -16 -66 -22
-265 -33 -216 -11 -332 -44 -486 -135 l-64 -38 -120 43 c-66 23 -162 55 -212
70 l-93 28 0 -88 0 -87 113 -43 c127 -49 412 -187 502 -245 93 -59 192 -141
235 -197 34 -42 40 -57 40 -98 0 -26 -9 -78 -20 -114 l-21 -66 -137 72 c-75
39 -162 86 -192 104 -136 80 -472 234 -511 234 -6 0 -9 -23 -7 -52 l3 -51 90
-38 c50 -21 137 -63 195 -94 58 -32 191 -102 295 -157 105 -56 194 -104 199
-109 11 -10 -8 -40 -85 -129 -33 -39 -68 -70 -77 -70 -10 0 -71 30 -137 66
-66 36 -172 94 -235 129 -99 55 -228 115 -245 115 -3 0 -5 -18 -5 -40 l0 -40
93 -46 c107 -54 416 -222 435 -237 6 -5 12 -13 12 -17 0 -4 -35 -31 -78 -59
l-78 -51 -188 65 c-103 36 -189 65 -192 65 -2 0 -4 -6 -4 -14 0 -8 33 -27 78
-46 42 -17 112 -46 154 -63 43 -18 78 -36 78 -40 0 -5 -34 -24 -77 -44 -59
-27 -93 -36 -155 -40 l-78 -6 0 -196 0 -196 73 -47 c108 -70 102 -71 127 14
47 156 132 306 241 422 35 38 118 107 184 154 79 56 153 120 215 186 288 306
467 453 644 531 115 51 199 67 320 63 127 -4 191 -27 265 -93 22 -21 41 -35
41 -32 0 20 -58 162 -85 207 -24 40 -34 72 -39 119 -9 93 -45 164 -126 246
-73 75 -123 156 -166 274 l-27 74 -20 -24 -19 -24 -18 23 c-10 12 -26 46 -35
75 -20 59 -35 82 -35 51z m404 -660 c9 -24 7 -54 -4 -54 -12 0 -30 33 -30 54
0 21 26 21 34 0z"/>
<path d="M6810 8535 c-198 -19 -510 -77 -556 -103 -10 -6 14 -33 89 -103 l102
-96 110 22 c251 51 339 59 595 59 263 0 383 -14 600 -69 470 -119 900 -394
1205 -770 l73 -90 148 -60 c81 -33 152 -62 157 -64 28 -11 -230 329 -373 493
-188 213 -369 371 -550 476 -302 176 -619 275 -995 310 -144 13 -448 11 -605
-5z"/>
<path d="M6934 8050 c-56 -5 -143 -16 -195 -25 -90 -15 -289 -62 -297 -70 -2
-2 26 -26 62 -53 l66 -49 57 13 c174 41 528 58 723 34 437 -54 816 -217 1155
-495 70 -58 121 -90 170 -110 39 -15 74 -30 79 -33 27 -16 -44 65 -116 134
-106 99 -251 215 -364 290 -112 74 -361 200 -479 243 -267 96 -595 143 -861
121z"/>
<path d="M6905 7733 c-149 -18 -315 -56 -315 -71 0 -5 17 -25 39 -46 l38 -37
84 15 c422 79 944 -11 1314 -226 43 -25 104 -49 160 -63 50 -13 91 -22 93 -20
1 1 -48 36 -110 78 -373 248 -786 381 -1168 375 -58 0 -118 -3 -135 -5z"/>
<path d="M5810 7544 c-88 -18 -231 -91 -310 -157 -64 -54 -133 -134 -183 -213
l-26 -41 87 -7 c367 -29 668 -237 845 -583 28 -57 54 -103 57 -103 3 0 46 30
95 66 50 36 116 79 147 95 75 38 202 74 313 89 49 6 91 13 93 15 3 2 -184 31
-248 37 -27 3 -37 30 -25 75 11 46 90 117 172 156 71 33 249 85 298 88 34 1
-77 28 -145 35 -170 17 -405 -65 -653 -225 -52 -34 -98 -61 -104 -61 -5 0 -18
9 -28 20 -21 23 -15 72 16 132 34 66 189 154 384 217 152 50 251 68 437 82
218 17 534 -11 738 -65 30 -8 57 -13 59 -10 6 6 -132 68 -204 92 -181 61 -459
89 -722 72 -197 -12 -275 -23 -362 -51 -131 -42 -345 -166 -437 -254 -61 -59
-81 -66 -107 -37 -79 87 121 316 323 371 41 12 87 21 103 21 46 0 23 15 -59
40 -58 17 -92 21 -137 17 -55 -5 -70 -12 -221 -114 -88 -59 -169 -109 -179
-111 -30 -6 -83 58 -92 108 -7 43 -6 46 30 77 32 27 148 89 245 131 39 16
-120 14 -200 -4z"/>
<path d="M5080 6899 c-118 -66 -219 -124 -223 -128 -7 -7 424 -271 442 -271 6
0 363 204 450 258 10 6 -49 44 -212 135 -124 70 -229 127 -234 127 -4 0 -105
-54 -223 -121z"/>
<path d="M4800 6462 l0 -259 213 -124 c116 -67 222 -129 235 -137 l22 -14 0
264 0 263 -227 130 c-125 72 -231 132 -235 133 -4 2 -8 -113 -8 -256z m241 11
l89 -48 0 -53 0 -53 -67 37 c-118 65 -123 70 -123 120 0 24 3 44 6 44 3 0 46
-21 95 -47z"/>
<path d="M5560 6586 l-225 -131 -3 -262 -2 -262 177 101 c98 56 205 117 238
137 l60 37 0 257 c0 165 -4 257 -10 256 -5 -1 -111 -60 -235 -133z"/>
<path d="M6996 5919 c-86 -12 -229 -59 -317 -105 -224 -118 -417 -359 -486
-610 -25 -89 -28 -115 -27 -259 0 -147 3 -169 31 -275 92 -340 336 -858 702
-1495 121 -210 215 -365 221 -365 3 0 64 89 136 198 544 816 843 1516 821
1921 -16 298 -124 540 -329 737 -104 100 -191 156 -320 204 -128 47 -302 67
-432 49z m275 -633 c161 -57 271 -171 331 -346 34 -97 32 -248 -4 -348 -73
-202 -199 -320 -382 -359 -173 -36 -362 28 -473 159 -77 92 -133 247 -133 368
0 60 28 185 54 244 45 100 145 209 236 256 103 55 260 65 371 26z"/>
<path d="M4896 5233 c31 -65 57 -125 58 -133 1 -13 -129 -16 -1094 -20 -602
-3 -1096 -6 -1097 -8 -5 -3 -3 -642 1 -642 2 0 24 9 48 20 24 11 87 27 139 36
84 15 195 16 1062 12 532 -3 970 -7 973 -10 3 -3 -27 -70 -66 -148 -39 -78
-70 -143 -68 -145 2 -1 62 30 133 69 310 172 473 261 670 370 116 63 216 119
223 123 12 8 -31 34 -433 258 -185 104 -375 210 -489 274 -60 34 -110 61 -112
61 -2 0 22 -53 52 -117z"/>
<path d="M2760 4040 c0 -105 -10 -85 148 -297 l114 -153 419 0 420 0 -3 -117
-3 -118 -394 -3 c-423 -4 -498 1 -623 44 -39 13 -73 24 -75 24 -2 0 -3 -130
-3 -288 l0 -289 122 -6 c66 -4 470 -7 896 -7 l775 0 -6 398 c-4 218 -7 511 -7
650 l0 252 -890 0 -890 0 0 -90z"/>
<path d="M4618 3944 c-5 -4 -8 -245 -8 -536 l0 -528 254 0 c294 0 372 11 484
66 170 83 275 260 275 464 1 156 -48 286 -144 380 -68 68 -134 104 -236 132
-67 18 -114 21 -348 25 -148 3 -273 2 -277 -3z m560 -235 c113 -58 162 -149
162 -298 0 -94 -13 -143 -52 -201 -61 -92 -151 -130 -305 -130 l-93 0 0 336 0
337 111 -5 c101 -5 117 -9 177 -39z"/>
<path d="M7015 2627 c-97 -47 -148 -127 -148 -232 1 -70 18 -117 63 -169 53
-59 102 -81 190 -81 58 0 84 5 116 22 90 48 154 166 140 256 -22 135 -112 217
-246 224 -53 3 -74 -1 -115 -20z"/>
</g>
</svg>
